<?xml version="1.0" encoding="UTF-8" standalone="no"?>
<!-- Generator: Adobe Illustrator 22.0.1, SVG Export Plug-In . SVG Version: 6.00 Build 0)  -->

<svg
   version="1.1"
   id="Layer_1"
   x="0px"
   y="0px"
   viewBox="0 0 512 512"
   style="enable-background:new 0 0 512 512;"
   xml:space="preserve"
   sodipodi:docname="icon2.svg"
   inkscape:version="1.1.2 (0a00cf5339, 2022-02-04)"
   xmlns:inkscape="http://www.inkscape.org/namespaces/inkscape"
   xmlns:sodipodi="http://sodipodi.sourceforge.net/DTD/sodipodi-0.dtd"
   xmlns="http://www.w3.org/2000/svg"
   xmlns:svg="http://www.w3.org/2000/svg"><defs
   id="defs15" /><sodipodi:namedview
   id="namedview13"
   pagecolor="#505050"
   bordercolor="#ffffff"
   borderopacity="1"
   inkscape:pageshadow="0"
   inkscape:pageopacity="0"
   inkscape:pagecheckerboard="1"
   showgrid="false"
   inkscape:zoom="0.63446243"
   inkscape:cx="256.12233"
   inkscape:cy="255.33427"
   inkscape:window-width="2560"
   inkscape:window-height="1384"
   inkscape:window-x="0"
   inkscape:window-y="0"
   inkscape:window-maximized="1"
   inkscape:current-layer="g10" />
<g
   id="g10"
   style="fill:#663399;fill-opacity:1">
	<path
   d="m 262.3,199.2 c -1.6,-2.8 -5.6,-3.2 -7.7,-0.7 l -91.9,122.2 c -2.5,2.9 -0.6,7.4 3.2,7.7 l 161.1,14 c 3.8,0.3 6.4,-3.8 4.5,-7.1 z"
   id="path2"
   style="fill:#f1defa;fill-opacity:1;stroke:none;stroke-width:16;stroke-linejoin:miter;stroke-miterlimit:4;stroke-dasharray:none;stroke-opacity:1;paint-order:stroke fill markers" />
	<path
   d="m 367.2,264.1 c -1.6,-2.8 -5.6,-3.2 -7.7,-0.7 l -24.8,25.1 c -1.3,1.5 -1.5,3.7 -0.5,5.4 l 25.4,49.5 c 0.8,1.3 2.1,2.2 3.7,2.3 l 44.9,3.9 c 3.8,0.3 6.4,-3.8 4.5,-7.1 z"
   id="path4"
   style="fill:#f1defa;fill-opacity:1;stroke:none;stroke-width:16;stroke-miterlimit:4;stroke-dasharray:none;stroke-opacity:1;paint-order:stroke fill markers" />
	<path
   d="m 378.1,224.4 c 11.2,-0.1 20.9,-8.3 23,-19.2 2.8,-14.8 -8.6,-28.3 -23.7,-28.1 -11.2,0.1 -20.9,8.3 -23,19.2 -2.8,14.8 8.6,28.3 23.7,28.1 z"
   id="path6"
   style="fill:#d459ab;fill-opacity:1" />
	<path
   d="m 455.2,129.3 -65.8,-5.7 -6.1,-67 C 382,41.7 368.8,30.7 353.8,32.1 L 56.7,58.9 C 41.8,60.2 30.8,73.4 32.1,88.3 l 26.8,296.5 c 1.3,14.9 14.5,25.9 29.5,24.5 l 15.7,-1.4 -1.5,16.7 c -1.3,14.9 9.7,28 24.7,29.3 l 297.3,25.9 c 14.9,1.3 28.1,-9.7 29.4,-24.6 l 26,-296.6 c 1.2,-14.8 -9.8,-28 -24.8,-29.3 z M 87.6,300.7 c -3.7,0.3 -7,-2.4 -7.4,-6.1 l -18,-200 c -0.3,-3.7 2.4,-7 6.1,-7.3 L 347.5,62.2 c 3.7,-0.3 7,2.4 7.4,6.1 l 4.8,52.8 L 158,103.4 c -14.9,-1.3 -28.1,9.7 -29.4,24.6 l -14.9,170.3 z m 362.2,-135.6 -17.5,200 c -0.3,3.7 -3.6,6.5 -7.3,6.2 L 406.4,369.7 145.7,347 c -3.7,-0.3 -6.5,-3.6 -6.2,-7.3 l 3.8,-43.9 13.7,-156.1 c 0.3,-3.7 3.6,-6.5 7.3,-6.2 l 198,17.3 29.7,2.6 51.6,4.5 c 3.8,0.2 6.6,3.5 6.2,7.2 z"
   id="path8"
   style="fill:#8a4baf;fill-opacity:1" />
</g>
</svg>
